<?xml version="1.0" standalone="no"?>
<!DOCTYPE svg PUBLIC "-//W3C//DTD SVG 20010904//EN"
 "http://www.w3.org/TR/2001/REC-SVG-20010904/DTD/svg10.dtd">
<svg version="1.0" xmlns="http://www.w3.org/2000/svg"
 width="640.000000pt" height="640.000000pt" viewBox="0 0 640.000000 640.000000"
 preserveAspectRatio="xMidYMid meet">
<metadata>
Created by potrace 1.14, written by Peter Selinger 2001-2017
</metadata>
<g transform="translate(0.000000,640.000000) scale(0.100000,-0.100000)"
fill="#000000" stroke="none">
<path d="M2979 6395 c-2 -2 -38 -6 -79 -9 -42 -4 -87 -8 -100 -10 -14 -3 -59
-10 -100 -16 -652 -100 -1262 -407 -1738 -877 -111 -110 -165 -169 -277 -304
-44 -52 -166 -228 -219 -317 -79 -129 -154 -277 -211 -412 -26 -63 -51 -124
-56 -135 -44 -104 -142 -474 -155 -580 -1 -10 -12 -83 -20 -134 -27 -175 -26
-608 2 -811 24 -176 67 -372 114 -530 28 -90 91 -263 102 -275 4 -5 8 -14 8
-21 0 -40 164 -349 277 -521 129 -197 231 -321 418 -508 180 -181 410 -364
572 -456 32 -18 60 -35 63 -38 13 -15 214 -117 340 -173 127 -56 327 -129 393
-142 6 -2 19 -6 27 -9 20 -8 87 -25 127 -32 18 -3 45 -10 60 -16 15 -6 28 -9
28 -8 0 2 82 -9 118 -17 42 -8 126 -20 232 -31 143 -15 600 -8 702 11 10 2 41
7 68 10 28 4 57 9 65 11 8 2 30 7 48 10 17 3 44 7 60 10 104 18 357 92 502
148 126 48 365 162 447 214 29 18 54 33 57 33 16 0 266 177 366 258 113 92
349 323 421 412 21 25 58 71 84 103 44 55 208 297 249 369 183 318 339 754
381 1063 3 17 7 47 11 68 8 48 11 76 21 167 10 90 10 510 0 595 -3 33 -9 83
-11 110 -6 50 -12 88 -21 135 -3 14 -8 41 -11 60 -24 155 -112 445 -192 635
-53 128 -140 304 -159 323 -7 7 -13 18 -13 23 0 16 -130 218 -209 324 -133
180 -352 414 -501 537 -107 87 -174 138 -242 184 -40 27 -75 51 -78 54 -24 26
-361 209 -465 252 -22 9 -62 26 -90 38 -130 56 -488 160 -598 175 -18 3 -43 7
-57 10 -48 10 -85 15 -135 21 -27 2 -63 7 -80 10 -36 5 -541 14 -546 9z"/>
</g>
</svg>
